<svg width="134" height="48" viewBox="0 0 134 48" fill="none" xmlns="http://www.w3.org/2000/svg">
<ellipse cx="26" cy="24" rx="26" ry="24" fill="#3E3535"/>
<path d="M18.0312 26.3665V24.5938L24.2017 22.0028V23.9418L20.1278 25.4631L20.1918 25.3693V25.5952L20.1278 25.4972L24.2017 27.0227V28.9574L18.0312 26.3665ZM29.9386 19.8636L27.1261 30.3125H25.3491L28.1616 19.8636H29.9386ZM30.7152 29V20.2727H32.8246V23.7756H36.2635V20.2727H38.3686V29H36.2635V25.4929H32.8246V29H30.7152ZM41.5795 29H39.3125L42.2571 20.2727H45.0653L48.0099 29H45.7429L43.6932 22.4716H43.625L41.5795 29ZM41.277 25.5653H46.0156V27.1676H41.277V25.5653ZM48.9496 29V20.2727H52.5547C53.2081 20.2727 53.772 20.3906 54.2464 20.6264C54.7237 20.8594 55.0916 21.1946 55.3501 21.6321C55.6087 22.0668 55.7379 22.5824 55.7379 23.179C55.7379 23.7841 55.6058 24.2983 55.3416 24.7216C55.0774 25.142 54.7024 25.4631 54.2166 25.6847C53.7308 25.9034 53.1555 26.0128 52.4908 26.0128H50.2109V24.3509H52.0987C52.4169 24.3509 52.6825 24.3097 52.8956 24.2273C53.1115 24.142 53.2749 24.0142 53.3857 23.8438C53.4964 23.6705 53.5518 23.4489 53.5518 23.179C53.5518 22.9091 53.4964 22.6861 53.3857 22.5099C53.2749 22.331 53.1115 22.1974 52.8956 22.1094C52.6797 22.0185 52.4141 21.973 52.0987 21.973H51.0589V29H48.9496ZM53.8629 25.0114L56.0362 29H53.7351L51.6044 25.0114H53.8629ZM56.8949 29V20.2727H62.9801V21.9858H59.0043V23.7756H62.669V25.4929H59.0043V27.2869H62.9801V29H56.8949ZM66.2827 20.2727L68.2344 26.6648H68.3068L70.2585 20.2727H72.6193L69.6747 29H66.8665L63.9219 20.2727H66.2827ZM74.146 29H71.8789L74.8235 20.2727H77.6317L80.5763 29H78.3093L76.2596 22.4716H76.1914L74.146 29ZM73.8434 25.5653H78.582V27.1676H73.8434V25.5653ZM81.516 29V20.2727H83.6254V27.2869H87.256V29H81.516ZM96.2454 24.6364C96.2454 25.5966 96.0607 26.4105 95.6914 27.0781C95.3221 27.7457 94.8221 28.2528 94.1914 28.5994C93.5636 28.946 92.859 29.1193 92.0778 29.1193C91.2937 29.1193 90.5877 28.9446 89.9599 28.5952C89.332 28.2457 88.8335 27.7386 88.4641 27.0739C88.0977 26.4062 87.9144 25.5937 87.9144 24.6364C87.9144 23.6761 88.0977 22.8622 88.4641 22.1946C88.8335 21.527 89.332 21.0199 89.9599 20.6733C90.5877 20.3267 91.2937 20.1534 92.0778 20.1534C92.859 20.1534 93.5636 20.3267 94.1914 20.6733C94.8221 21.0199 95.3221 21.527 95.6914 22.1946C96.0607 22.8622 96.2454 23.6761 96.2454 24.6364ZM94.0891 24.6364C94.0891 24.0682 94.0082 23.5881 93.8462 23.196C93.6871 22.804 93.457 22.5071 93.1559 22.3054C92.8576 22.1037 92.4982 22.0028 92.0778 22.0028C91.6602 22.0028 91.3008 22.1037 90.9996 22.3054C90.6985 22.5071 90.467 22.804 90.305 23.196C90.146 23.5881 90.0664 24.0682 90.0664 24.6364C90.0664 25.2045 90.146 25.6847 90.305 26.0767C90.467 26.4687 90.6985 26.7656 90.9996 26.9673C91.3008 27.169 91.6602 27.2699 92.0778 27.2699C92.4982 27.2699 92.8576 27.169 93.1559 26.9673C93.457 26.7656 93.6871 26.4687 93.8462 26.0767C94.0082 25.6847 94.0891 25.2045 94.0891 24.6364ZM103.281 29H100.055V20.2727H103.277C104.166 20.2727 104.931 20.4474 105.574 20.7969C106.218 21.1435 106.716 21.6435 107.065 22.2969C107.414 22.9474 107.589 23.7259 107.589 24.6321C107.589 25.5412 107.414 26.3224 107.065 26.9759C106.718 27.6293 106.223 28.1307 105.578 28.4801C104.933 28.8267 104.167 29 103.281 29ZM102.164 27.2017H103.2C103.689 27.2017 104.102 27.1193 104.44 26.9545C104.781 26.7869 105.038 26.5156 105.211 26.1406C105.387 25.7628 105.475 25.2599 105.475 24.6321C105.475 24.0043 105.387 23.5043 105.211 23.1321C105.035 22.7571 104.775 22.4872 104.431 22.3224C104.091 22.1548 103.67 22.071 103.17 22.071H102.164V27.2017ZM108.821 29V20.2727H114.906V21.9858H110.93V23.7756H114.595V25.4929H110.93V27.2869H114.906V29H108.821ZM118.208 20.2727L120.16 26.6648H120.233L122.184 20.2727H124.545L121.6 29H118.792L115.848 20.2727H118.208ZM132.026 25.5483L125.855 28.1392V26.2045L129.929 24.679L129.87 24.777V24.5511L129.929 24.6449L125.855 23.1236V21.1847L132.026 23.7756V25.5483Z" fill="white"/>
</svg>
